<svg width="344" height="125" viewBox="0 0 344 125" fill="none" xmlns="http://www.w3.org/2000/svg">
<path d="M31.8713 106.665C45.5196 112.786 61.5451 106.683 67.6653 93.0345C73.7855 79.3862 67.6828 63.3607 54.0345 57.2404C40.3862 51.1202 24.3607 57.2229 18.2405 70.8713C12.1202 84.5196 18.223 100.545 31.8713 106.665Z" fill="#8752F3" stroke="white" stroke-width="3" stroke-linecap="round" stroke-linejoin="round"/>
<path d="M29.7434 84.934C30.6517 88.9458 33.3699 92.4965 37.4121 94.3091C41.4543 96.1217 45.9136 95.7896 49.5134 93.7993" stroke="white" stroke-width="4.0625" stroke-linecap="round" stroke-linejoin="round"/>
<path d="M36.4146 70.1164L36.3924 70.1064M56.1623 78.9717L56.1401 78.9618" stroke="white" stroke-width="5.41667" stroke-linecap="round" stroke-linejoin="round"/>
<path d="M92.0857 20.7698C95.145 22.0432 96.5928 25.5555 95.3194 28.6148L86.4812 49.8488C85.2078 52.9081 81.6955 54.3559 78.6362 53.0825L71.7121 50.2005L69.0222 56.663C68.7038 57.4279 67.8258 57.7898 67.0609 57.4715C66.2961 57.1531 65.9342 56.2751 66.2525 55.5102L68.9424 49.0477L47.7084 40.2094L45.0185 46.672C44.7001 47.4368 43.822 47.7988 43.0572 47.4804C42.2924 47.1621 41.9304 46.284 42.2488 45.5192L44.9387 39.0566L36.1681 35.4061C33.1088 34.1327 31.661 30.6204 32.9344 27.5611L41.7726 6.32704C43.046 3.26776 46.5583 1.81998 49.6176 3.09335L92.0857 20.7698ZM48.4648 5.86301C46.9351 5.22633 45.179 5.95021 44.5423 7.47985L35.7041 28.7139C35.0873 30.1958 35.7474 31.8902 37.18 32.5735L37.3209 32.6364L79.789 50.3129L79.933 50.3686C81.4273 50.9035 83.0947 50.1779 83.7115 48.696L92.5498 27.462C93.1864 25.9323 92.4626 24.1762 90.9329 23.5395L48.4648 5.86301ZM67.2059 33.7022C67.9707 34.0205 68.3327 34.8986 68.0144 35.6634C67.696 36.4282 66.8179 36.7902 66.0531 36.4718L45.7423 28.0179C44.9774 27.6995 44.6155 26.8215 44.9338 26.0566C45.2522 25.2918 46.1303 24.9299 46.8951 25.2482L67.2059 33.7022ZM80.2035 27.1973C80.9683 27.5157 81.3303 28.3938 81.0119 29.1586C80.6936 29.9234 79.8155 30.2853 79.0507 29.967L49.9693 17.8624C49.2044 17.5441 48.8425 16.666 49.1608 15.9012C49.4792 15.1364 50.3572 14.7744 51.1221 15.0928L80.2035 27.1973Z" fill="white"/>
<path d="M97.4429 74.7273C97.4429 78.1486 98.2057 81.1538 99.7314 83.7429C101.303 86.3319 103.338 88.3431 105.834 89.7764C108.377 91.1634 111.128 91.8569 114.087 91.8569C116.399 91.8569 118.479 91.5564 120.329 90.9553C122.178 90.3543 123.842 89.5452 125.322 88.5281C126.848 87.4647 128.165 86.2857 129.275 84.9912V94.7003C127.241 96.3647 125.044 97.6361 122.686 98.5145C120.329 99.393 117.37 99.8322 113.81 99.8322C110.25 99.8322 106.921 99.2312 103.823 98.0291C100.772 96.827 98.1132 95.0932 95.8478 92.8278C93.5823 90.5623 91.8023 87.9039 90.5078 84.8525C89.2595 81.7548 88.6353 78.3797 88.6353 74.7273C88.6353 71.0748 89.2595 67.7229 90.5078 64.6714C91.8023 61.5738 93.5823 58.8922 95.8478 56.6267C98.1132 54.3613 100.772 52.6275 103.823 51.4254C106.921 50.2234 110.25 49.6223 113.81 49.6223C117.37 49.6223 120.329 50.0616 122.686 50.94C125.044 51.8184 127.241 53.0899 129.275 54.7543V64.4634C128.165 63.1688 126.848 62.013 125.322 60.9958C123.842 59.9325 122.178 59.1003 120.329 58.4992C118.479 57.8982 116.399 57.5977 114.087 57.5977C111.128 57.5977 108.377 58.3143 105.834 59.7475C103.338 61.1345 101.303 63.1226 99.7314 65.7117C98.2057 68.2545 97.4429 71.2597 97.4429 74.7273ZM136.307 83.0493C136.307 79.7668 137.047 76.8771 138.527 74.3805C140.052 71.8839 142.11 69.9421 144.699 68.5551C147.288 67.1218 150.224 66.4052 153.506 66.4052C156.789 66.4052 159.702 67.1218 162.245 68.5551C164.834 69.9421 166.891 71.8839 168.417 74.3805C169.942 76.8771 170.705 79.7668 170.705 83.0493C170.705 86.2857 169.942 89.1753 168.417 91.7182C166.891 94.2148 164.834 96.1797 162.245 97.613C159.702 99 156.789 99.6935 153.506 99.6935C150.224 99.6935 147.288 99 144.699 97.613C142.11 96.1797 140.052 94.2148 138.527 91.7182C137.047 89.1753 136.307 86.2857 136.307 83.0493ZM144.005 83.0493C144.005 85.0374 144.421 86.7943 145.254 88.32C146.086 89.7995 147.219 90.9784 148.652 91.8569C150.085 92.6891 151.703 93.1052 153.506 93.1052C155.263 93.1052 156.858 92.6891 158.292 91.8569C159.771 90.9784 160.927 89.7995 161.759 88.32C162.591 86.7943 163.007 85.0374 163.007 83.0493C163.007 81.0613 162.591 79.3044 161.759 77.7787C160.927 76.253 159.771 75.074 158.292 74.2418C156.858 73.4096 155.263 72.9935 153.506 72.9935C151.703 72.9935 150.085 73.4096 148.652 74.2418C147.219 75.074 146.086 76.253 145.254 77.7787C144.421 79.3044 144.005 81.0613 144.005 83.0493ZM175.385 83.0493C175.385 79.7668 176.125 76.8771 177.604 74.3805C179.13 71.8839 181.187 69.9421 183.776 68.5551C186.365 67.1218 189.301 66.4052 192.584 66.4052C195.866 66.4052 198.779 67.1218 201.322 68.5551C203.911 69.9421 205.969 71.8839 207.494 74.3805C209.02 76.8771 209.783 79.7668 209.783 83.0493C209.783 86.2857 209.02 89.1753 207.494 91.7182C205.969 94.2148 203.911 96.1797 201.322 97.613C198.779 99 195.866 99.6935 192.584 99.6935C189.301 99.6935 186.365 99 183.776 97.613C181.187 96.1797 179.13 94.2148 177.604 91.7182C176.125 89.1753 175.385 86.2857 175.385 83.0493ZM183.083 83.0493C183.083 85.0374 183.499 86.7943 184.331 88.32C185.163 89.7995 186.296 90.9784 187.729 91.8569C189.163 92.6891 190.781 93.1052 192.584 93.1052C194.341 93.1052 195.936 92.6891 197.369 91.8569C198.849 90.9784 200.004 89.7995 200.837 88.32C201.669 86.7943 202.085 85.0374 202.085 83.0493C202.085 81.0613 201.669 79.3044 200.837 77.7787C200.004 76.253 198.849 75.074 197.369 74.2418C195.936 73.4096 194.341 72.9935 192.584 72.9935C190.781 72.9935 189.163 73.4096 187.729 74.2418C186.296 75.074 185.163 76.253 184.331 77.7787C183.499 79.3044 183.083 81.0613 183.083 83.0493ZM216.612 44.9065H223.963V99H216.612V44.9065ZM235.684 67.0987H244.838L231.106 80.2753L246.225 99H237.14L221.883 80.2753L235.684 67.0987ZM264.081 99.6935C260.844 99.6935 257.978 99 255.481 97.613C253.031 96.226 251.135 94.2842 249.794 91.7875C248.454 89.2909 247.783 86.3782 247.783 83.0493C247.783 79.6743 248.454 76.7384 249.794 74.2418C251.181 71.7452 253.123 69.8265 255.62 68.4857C258.116 67.0987 261.052 66.4052 264.427 66.4052C267.802 66.4052 270.669 67.0525 273.027 68.347C275.385 69.6416 277.188 71.514 278.436 73.9644C279.731 76.3686 280.378 79.2813 280.378 82.7026C280.378 83.0725 280.355 83.4655 280.309 83.8816C280.309 84.2977 280.285 84.5982 280.239 84.7831H252.222V79.6512H273.859L271.57 82.8413C271.709 82.5639 271.848 82.194 271.987 81.7317C272.171 81.2231 272.264 80.807 272.264 80.4834C272.264 78.7727 271.917 77.2932 271.224 76.0449C270.576 74.7966 269.652 73.8257 268.45 73.1322C267.294 72.4387 265.93 72.0919 264.358 72.0919C262.462 72.0919 260.844 72.508 259.503 73.3403C258.163 74.1725 257.145 75.3745 256.452 76.9465C255.758 78.5184 255.389 80.4603 255.342 82.7719C255.342 85.0836 255.689 87.0486 256.383 88.6668C257.076 90.2387 258.093 91.4408 259.434 92.273C260.821 93.1052 262.485 93.5213 264.427 93.5213C266.462 93.5213 268.242 93.1052 269.767 92.273C271.293 91.4408 272.564 90.1693 273.582 88.4587L280.031 91.094C278.367 93.9605 276.217 96.1104 273.582 97.5436C270.946 98.9769 267.779 99.6935 264.081 99.6935ZM294.948 67.0987V99H287.527V67.0987H294.948ZM304.449 75.074C303.755 74.5192 303.108 74.1031 302.507 73.8257C301.906 73.5483 301.143 73.4096 300.218 73.4096C298.97 73.4096 297.953 73.7332 297.167 74.3805C296.381 75.0278 295.803 75.9293 295.433 77.0852C295.109 78.1948 294.948 79.5125 294.948 81.0382L292.451 79.5818C292.451 77.039 292.913 74.7966 293.838 72.8548C294.809 70.8668 296.034 69.2948 297.514 68.139C299.039 66.9831 300.611 66.4052 302.229 66.4052C303.385 66.4052 304.472 66.5901 305.489 66.96C306.506 67.2836 307.361 67.8847 308.055 68.7631L304.449 75.074ZM343.52 67.0987L322.715 114.257H314.74L323.062 95.2551L310.232 67.0987H318.831L329.026 92.3423L325.489 92.1343L335.475 67.0987H343.52Z" fill="white"/>
</svg>
